<?xml version="1.0" encoding="UTF-8" standalone="no"?>
<!DOCTYPE svg PUBLIC "-//W3C//DTD SVG 1.1//EN"
 "http://www.w3.org/Graphics/SVG/1.1/DTD/svg11.dtd">
<!-- Generated by graphviz version 2.40.1 (20161225.0304)
 -->
<!-- Title: dependencies Pages: 1 -->
<svg width="7975pt" height="284pt"
 viewBox="0.00 0.00 7975.00 284.00" xmlns="http://www.w3.org/2000/svg" xmlns:xlink="http://www.w3.org/1999/xlink">
<g id="graph0" class="graph" transform="scale(1 1) rotate(0) translate(4 280)">
<title>dependencies</title>
<polygon fill="#ffffff" stroke="transparent" points="-4,4 -4,-280 7971,-280 7971,4 -4,4"/>
<text text-anchor="start" x="3962.5091" y="-42.4" font-family="sans-serif" font-weight="bold" font-size="14.00" fill="#000000">Legend</text>
<polygon fill="#ffffb3" stroke="transparent" points="3749.5,-10 3749.5,-30 3769.5,-30 3769.5,-10 3749.5,-10"/>
<text text-anchor="start" x="3773.129" y="-15.4" font-family="sans-serif" font-size="14.00" fill="#000000"> &#160;Declarations</text>
<polygon fill="#8dd3c7" stroke="transparent" points="3862.5,-10 3862.5,-30 3882.5,-30 3882.5,-10 3862.5,-10"/>
<text text-anchor="start" x="3886.2251" y="-15.4" font-family="sans-serif" font-size="14.00" fill="#000000"> &#160;Module</text>
<polygon fill="#80b1d3" stroke="transparent" points="3948.5,-10 3948.5,-30 3968.5,-30 3968.5,-10 3948.5,-10"/>
<text text-anchor="start" x="3972.2812" y="-15.4" font-family="sans-serif" font-size="14.00" fill="#000000"> &#160;Bootstrap</text>
<polygon fill="#fdb462" stroke="transparent" points="4045.5,-10 4045.5,-30 4065.5,-30 4065.5,-10 4045.5,-10"/>
<text text-anchor="start" x="4069.1732" y="-15.4" font-family="sans-serif" font-size="14.00" fill="#000000"> &#160;Providers</text>
<polygon fill="#fb8072" stroke="transparent" points="4141.5,-10 4141.5,-30 4161.5,-30 4161.5,-10 4141.5,-10"/>
<text text-anchor="start" x="4165.2258" y="-15.4" font-family="sans-serif" font-size="14.00" fill="#000000"> &#160;Exports</text>
<g id="clust1" class="cluster">
<title>cluster_AppModule</title>
<polygon fill="none" stroke="#000000" stroke-dasharray="1,5" points="8,-70 8,-268 7959,-268 7959,-70 8,-70"/>
</g>
<g id="clust2" class="cluster">
<title>cluster_AppModule_declarations</title>
<polygon fill="none" stroke="#000000" points="1948,-78 1948,-130 7951,-130 7951,-78 1948,-78"/>
</g>
<g id="clust46" class="cluster">
<title>cluster_AppModule_imports</title>
<polygon fill="none" stroke="#000000" points="1792,-78 1792,-130 1940,-130 1940,-78 1792,-78"/>
</g>
<g id="clust48" class="cluster">
<title>cluster_AppModule_bootstrap</title>
<polygon fill="none" stroke="#000000" points="3922,-208 3922,-260 4010,-260 4010,-208 3922,-208"/>
</g>
<g id="clust49" class="cluster">
<title>cluster_AppModule_providers</title>
<polygon fill="none" stroke="#000000" points="16,-78 16,-130 1784,-130 1784,-78 16,-78"/>
</g>
<!-- AboutPage -->
<g id="node1" class="node">
<title>AboutPage</title>
<polygon fill="#ffffb3" stroke="#000000" points="7943.2093,-122 7864.7907,-122 7864.7907,-86 7943.2093,-86 7943.2093,-122"/>
<text text-anchor="middle" x="7904" y="-99.8" font-family="Times,serif" font-size="14.00" fill="#000000">AboutPage</text>
</g>
<!-- AppModule -->
<g id="node44" class="node">
<title>AppModule</title>
<polygon fill="#8dd3c7" stroke="#000000" points="4007.6571,-187 4004.6571,-191 3983.6571,-191 3980.6571,-187 3924.3429,-187 3924.3429,-151 4007.6571,-151 4007.6571,-187"/>
<text text-anchor="middle" x="3966" y="-164.8" font-family="Times,serif" font-size="14.00" fill="#000000">AppModule</text>
</g>
<!-- AboutPage&#45;&gt;AppModule -->
<g id="edge1" class="edge">
<title>AboutPage&#45;&gt;AppModule</title>
<path fill="none" stroke="#000000" d="M7904,-122.1985C7904,-146.3563 7904,-186 7904,-186 7904,-186 4017.8898,-186 4017.8898,-186"/>
<polygon fill="#000000" stroke="#000000" points="4017.8898,-182.5001 4007.8898,-186 4017.8898,-189.5001 4017.8898,-182.5001"/>
</g>
<!-- AccordionComponent -->
<g id="node2" class="node">
<title>AccordionComponent</title>
<polygon fill="#ffffb3" stroke="#000000" points="7847.42,-122 7706.58,-122 7706.58,-86 7847.42,-86 7847.42,-122"/>
<text text-anchor="middle" x="7777" y="-99.8" font-family="Times,serif" font-size="14.00" fill="#000000">AccordionComponent</text>
</g>
<!-- AccordionComponent&#45;&gt;AppModule -->
<g id="edge2" class="edge">
<title>AccordionComponent&#45;&gt;AppModule</title>
<path fill="none" stroke="#000000" d="M7777,-122.3802C7777,-146.2785 7777,-185 7777,-185 7777,-185 4017.8234,-185 4017.8234,-185"/>
<polygon fill="#000000" stroke="#000000" points="4017.8234,-181.5001 4007.8234,-185 4017.8233,-188.5001 4017.8234,-181.5001"/>
</g>
<!-- AllergiesForm -->
<g id="node3" class="node">
<title>AllergiesForm</title>
<polygon fill="#ffffb3" stroke="#000000" points="7688.6472,-122 7591.3528,-122 7591.3528,-86 7688.6472,-86 7688.6472,-122"/>
<text text-anchor="middle" x="7640" y="-99.8" font-family="Times,serif" font-size="14.00" fill="#000000">AllergiesForm</text>
</g>
<!-- AllergiesForm&#45;&gt;AppModule -->
<g id="edge3" class="edge">
<title>AllergiesForm&#45;&gt;AppModule</title>
<path fill="none" stroke="#000000" d="M7640,-122.3228C7640,-145.6602 7640,-183 7640,-183 7640,-183 4017.8937,-183 4017.8937,-183"/>
<polygon fill="#000000" stroke="#000000" points="4017.8938,-179.5001 4007.8937,-183 4017.8937,-186.5001 4017.8938,-179.5001"/>
</g>
<!-- AnimatedCirclesComponent -->
<g id="node4" class="node">
<title>AnimatedCirclesComponent</title>
<polygon fill="#ffffb3" stroke="#000000" points="7573.1923,-122 7396.8077,-122 7396.8077,-86 7573.1923,-86 7573.1923,-122"/>
<text text-anchor="middle" x="7485" y="-99.8" font-family="Times,serif" font-size="14.00" fill="#000000">AnimatedCirclesComponent</text>
</g>
<!-- AnimatedCirclesComponent&#45;&gt;AppModule -->
<g id="edge4" class="edge">
<title>AnimatedCirclesComponent&#45;&gt;AppModule</title>
<path fill="none" stroke="#000000" d="M7485,-122.0908C7485,-145.1328 7485,-182 7485,-182 7485,-182 4017.6612,-182 4017.6612,-182"/>
<polygon fill="#000000" stroke="#000000" points="4017.6613,-178.5001 4007.6612,-182 4017.6612,-185.5001 4017.6613,-178.5001"/>
</g>
<!-- BarchartComponent -->
<g id="node5" class="node">
<title>BarchartComponent</title>
<polygon fill="#ffffb3" stroke="#000000" points="7378.5255,-122 7249.4745,-122 7249.4745,-86 7378.5255,-86 7378.5255,-122"/>
<text text-anchor="middle" x="7314" y="-99.8" font-family="Times,serif" font-size="14.00" fill="#000000">BarchartComponent</text>
</g>
<!-- BarchartComponent&#45;&gt;AppModule -->
<g id="edge5" class="edge">
<title>BarchartComponent&#45;&gt;AppModule</title>
<path fill="none" stroke="#000000" d="M7314,-122.2479C7314,-145.0179 7314,-181 7314,-181 7314,-181 4017.7251,-181 4017.7251,-181"/>
<polygon fill="#000000" stroke="#000000" points="4017.7251,-177.5001 4007.7251,-181 4017.725,-184.5001 4017.7251,-177.5001"/>
</g>
<!-- CardFlippingComponent -->
<g id="node6" class="node">
<title>CardFlippingComponent</title>
<polygon fill="#ffffb3" stroke="#000000" points="7230.9986,-122 7075.0014,-122 7075.0014,-86 7230.9986,-86 7230.9986,-122"/>
<text text-anchor="middle" x="7153" y="-99.8" font-family="Times,serif" font-size="14.00" fill="#000000">CardFlippingComponent</text>
</g>
<!-- CardFlippingComponent&#45;&gt;AppModule -->
<g id="edge6" class="edge">
<title>CardFlippingComponent&#45;&gt;AppModule</title>
<path fill="none" stroke="#000000" d="M7153,-122.1554C7153,-144.3519 7153,-179 7153,-179 7153,-179 4017.7549,-179 4017.7549,-179"/>
<polygon fill="#000000" stroke="#000000" points="4017.755,-175.5001 4007.7549,-179 4017.7549,-182.5001 4017.755,-175.5001"/>
</g>
<!-- CircleDecorationComponent -->
<g id="node7" class="node">
<title>CircleDecorationComponent</title>
<polygon fill="#ffffb3" stroke="#000000" points="7056.7324,-122 6879.2676,-122 6879.2676,-86 7056.7324,-86 7056.7324,-122"/>
<text text-anchor="middle" x="6968" y="-99.8" font-family="Times,serif" font-size="14.00" fill="#000000">CircleDecorationComponent</text>
</g>
<!-- CircleDecorationComponent&#45;&gt;AppModule -->
<g id="edge7" class="edge">
<title>CircleDecorationComponent&#45;&gt;AppModule</title>
<path fill="none" stroke="#000000" d="M6968,-122.2921C6968,-144.2057 6968,-178 6968,-178 6968,-178 4017.8641,-178 4017.8641,-178"/>
<polygon fill="#000000" stroke="#000000" points="4017.8642,-174.5001 4007.8641,-178 4017.8641,-181.5001 4017.8642,-174.5001"/>
</g>
<!-- ConsentFormPage -->
<g id="node8" class="node">
<title>ConsentFormPage</title>
<polygon fill="#ffffb3" stroke="#000000" points="6860.9328,-122 6741.0672,-122 6741.0672,-86 6860.9328,-86 6860.9328,-122"/>
<text text-anchor="middle" x="6801" y="-99.8" font-family="Times,serif" font-size="14.00" fill="#000000">ConsentFormPage</text>
</g>
<!-- ConsentFormPage&#45;&gt;AppModule -->
<g id="edge8" class="edge">
<title>ConsentFormPage&#45;&gt;AppModule</title>
<path fill="none" stroke="#000000" d="M6801,-122.0449C6801,-143.6623 6801,-177 6801,-177 6801,-177 4017.7209,-177 4017.7209,-177"/>
<polygon fill="#000000" stroke="#000000" points="4017.7209,-173.5001 4007.7209,-177 4017.7209,-180.5001 4017.7209,-173.5001"/>
</g>
<!-- ContactPage -->
<g id="node9" class="node">
<title>ContactPage</title>
<polygon fill="#ffffb3" stroke="#000000" points="6723.2591,-122 6636.7409,-122 6636.7409,-86 6723.2591,-86 6723.2591,-122"/>
<text text-anchor="middle" x="6680" y="-99.8" font-family="Times,serif" font-size="14.00" fill="#000000">ContactPage</text>
</g>
<!-- ContactPage&#45;&gt;AppModule -->
<g id="edge9" class="edge">
<title>ContactPage&#45;&gt;AppModule</title>
<path fill="none" stroke="#000000" d="M6680,-122.2843C6680,-143.3211 6680,-175 6680,-175 6680,-175 4017.8147,-175 4017.8147,-175"/>
<polygon fill="#000000" stroke="#000000" points="4017.8147,-171.5001 4007.8147,-175 4017.8147,-178.5001 4017.8147,-171.5001"/>
</g>
<!-- ContentDrawerComponent -->
<g id="node10" class="node">
<title>ContentDrawerComponent</title>
<polygon fill="#ffffb3" stroke="#000000" points="6618.6288,-122 6451.3712,-122 6451.3712,-86 6618.6288,-86 6618.6288,-122"/>
<text text-anchor="middle" x="6535" y="-99.8" font-family="Times,serif" font-size="14.00" fill="#000000">ContentDrawerComponent</text>
</g>
<!-- ContentDrawerComponent&#45;&gt;AppModule -->
<g id="edge10" class="edge">
<title>ContentDrawerComponent&#45;&gt;AppModule</title>
<path fill="none" stroke="#000000" d="M6535,-122.0267C6535,-142.7672 6535,-174 6535,-174 6535,-174 4017.9183,-174 4017.9183,-174"/>
<polygon fill="#000000" stroke="#000000" points="4017.9184,-170.5001 4007.9183,-174 4017.9183,-177.5001 4017.9184,-170.5001"/>
</g>
<!-- CustomForm -->
<g id="node11" class="node">
<title>CustomForm</title>
<polygon fill="#ffffb3" stroke="#000000" points="6432.8963,-122 6343.1037,-122 6343.1037,-86 6432.8963,-86 6432.8963,-122"/>
<text text-anchor="middle" x="6388" y="-99.8" font-family="Times,serif" font-size="14.00" fill="#000000">CustomForm</text>
</g>
<!-- CustomForm&#45;&gt;AppModule -->
<g id="edge11" class="edge">
<title>CustomForm&#45;&gt;AppModule</title>
<path fill="none" stroke="#000000" d="M6388,-122.1289C6388,-142.5724 6388,-173 6388,-173 6388,-173 4017.7832,-173 4017.7832,-173"/>
<polygon fill="#000000" stroke="#000000" points="4017.7832,-169.5001 4007.7832,-173 4017.7832,-176.5001 4017.7832,-169.5001"/>
</g>
<!-- DashboardPage -->
<g id="node12" class="node">
<title>DashboardPage</title>
<polygon fill="#ffffb3" stroke="#000000" points="6324.8529,-122 6221.1471,-122 6221.1471,-86 6324.8529,-86 6324.8529,-122"/>
<text text-anchor="middle" x="6273" y="-99.8" font-family="Times,serif" font-size="14.00" fill="#000000">DashboardPage</text>
</g>
<!-- DashboardPage&#45;&gt;AppModule -->
<g id="edge12" class="edge">
<title>DashboardPage&#45;&gt;AppModule</title>
<path fill="none" stroke="#000000" d="M6273,-122.308C6273,-142.1455 6273,-171 6273,-171 6273,-171 4018.0117,-171 4018.0117,-171"/>
<polygon fill="#000000" stroke="#000000" points="4018.0117,-167.5001 4008.0117,-171 4018.0116,-174.5001 4018.0117,-167.5001"/>
</g>
<!-- DoughnutComponent -->
<g id="node13" class="node">
<title>DoughnutComponent</title>
<polygon fill="#ffffb3" stroke="#000000" points="6202.83,-122 6065.17,-122 6065.17,-86 6202.83,-86 6202.83,-122"/>
<text text-anchor="middle" x="6134" y="-99.8" font-family="Times,serif" font-size="14.00" fill="#000000">DoughnutComponent</text>
</g>
<!-- DoughnutComponent&#45;&gt;AppModule -->
<g id="edge13" class="edge">
<title>DoughnutComponent&#45;&gt;AppModule</title>
<path fill="none" stroke="#000000" d="M6134,-122.0348C6134,-141.5762 6134,-170 6134,-170 6134,-170 4017.8524,-170 4017.8524,-170"/>
<polygon fill="#000000" stroke="#000000" points="4017.8524,-166.5001 4007.8524,-170 4017.8523,-173.5001 4017.8524,-166.5001"/>
</g>
<!-- EnviroEvalUpdatePage -->
<g id="node14" class="node">
<title>EnviroEvalUpdatePage</title>
<polygon fill="#ffffb3" stroke="#000000" points="6047.9003,-122 5900.0997,-122 5900.0997,-86 6047.9003,-86 6047.9003,-122"/>
<text text-anchor="middle" x="5974" y="-99.8" font-family="Times,serif" font-size="14.00" fill="#000000">EnviroEvalUpdatePage</text>
</g>
<!-- EnviroEvalUpdatePage&#45;&gt;AppModule -->
<g id="edge14" class="edge">
<title>EnviroEvalUpdatePage&#45;&gt;AppModule</title>
<path fill="none" stroke="#000000" d="M5974,-122.1061C5974,-141.3391 5974,-169 5974,-169 5974,-169 4017.9399,-169 4017.9399,-169"/>
<polygon fill="#000000" stroke="#000000" points="4017.94,-165.5001 4007.9399,-169 4017.9399,-172.5001 4017.94,-165.5001"/>
</g>
<!-- EnvironmentalHistoryForm -->
<g id="node15" class="node">
<title>EnvironmentalHistoryForm</title>
<polygon fill="#ffffb3" stroke="#000000" points="5882.5322,-122 5711.4678,-122 5711.4678,-86 5882.5322,-86 5882.5322,-122"/>
<text text-anchor="middle" x="5797" y="-99.8" font-family="Times,serif" font-size="14.00" fill="#000000">EnvironmentalHistoryForm</text>
</g>
<!-- EnvironmentalHistoryForm&#45;&gt;AppModule -->
<g id="edge15" class="edge">
<title>EnvironmentalHistoryForm&#45;&gt;AppModule</title>
<path fill="none" stroke="#000000" d="M5797,-122.2222C5797,-140.8285 5797,-167 5797,-167 5797,-167 4017.6832,-167 4017.6832,-167"/>
<polygon fill="#000000" stroke="#000000" points="4017.6833,-163.5001 4007.6832,-167 4017.6832,-170.5001 4017.6833,-163.5001"/>
</g>
<!-- EvaluationMedicalForm -->
<g id="node16" class="node">
<title>EvaluationMedicalForm</title>
<polygon fill="#ffffb3" stroke="#000000" points="5693.3571,-122 5540.6429,-122 5540.6429,-86 5693.3571,-86 5693.3571,-122"/>
<text text-anchor="middle" x="5617" y="-99.8" font-family="Times,serif" font-size="14.00" fill="#000000">EvaluationMedicalForm</text>
</g>
<!-- EvaluationMedicalForm&#45;&gt;AppModule -->
<g id="edge16" class="edge">
<title>EvaluationMedicalForm&#45;&gt;AppModule</title>
<path fill="none" stroke="#000000" d="M5617,-122.2667C5617,-140.5552 5617,-166 5617,-166 5617,-166 4018.0529,-166 4018.0529,-166"/>
<polygon fill="#000000" stroke="#000000" points="4018.053,-162.5001 4008.0529,-166 4018.0529,-169.5001 4018.053,-162.5001"/>
</g>
<!-- EvaluationSurgicalForm -->
<g id="node17" class="node">
<title>EvaluationSurgicalForm</title>
<polygon fill="#ffffb3" stroke="#000000" points="5522.6414,-122 5369.3586,-122 5369.3586,-86 5522.6414,-86 5522.6414,-122"/>
<text text-anchor="middle" x="5446" y="-99.8" font-family="Times,serif" font-size="14.00" fill="#000000">EvaluationSurgicalForm</text>
</g>
<!-- EvaluationSurgicalForm&#45;&gt;AppModule -->
<g id="edge17" class="edge">
<title>EvaluationSurgicalForm&#45;&gt;AppModule</title>
<path fill="none" stroke="#000000" d="M5446,-122.302C5446,-140.2699 5446,-165 5446,-165 5446,-165 4017.9095,-165 4017.9095,-165"/>
<polygon fill="#000000" stroke="#000000" points="4017.9095,-161.5001 4007.9095,-165 4017.9095,-168.5001 4017.9095,-161.5001"/>
</g>
<!-- FindRecordsPage -->
<g id="node18" class="node">
<title>FindRecordsPage</title>
<polygon fill="#ffffb3" stroke="#000000" points="5351.2563,-122 5236.7437,-122 5236.7437,-86 5351.2563,-86 5351.2563,-122"/>
<text text-anchor="middle" x="5294" y="-99.8" font-family="Times,serif" font-size="14.00" fill="#000000">FindRecordsPage</text>
</g>
<!-- FindRecordsPage&#45;&gt;AppModule -->
<g id="edge18" class="edge">
<title>FindRecordsPage&#45;&gt;AppModule</title>
<path fill="none" stroke="#000000" d="M5294,-122.0225C5294,-139.3734 5294,-163 5294,-163 5294,-163 4017.9378,-163 4017.9378,-163"/>
<polygon fill="#000000" stroke="#000000" points="4017.9378,-159.5001 4007.9378,-163 4017.9377,-166.5001 4017.9378,-159.5001"/>
</g>
<!-- HelpPage -->
<g id="node19" class="node">
<title>HelpPage</title>
<polygon fill="#ffffb3" stroke="#000000" points="5218.4249,-122 5147.5751,-122 5147.5751,-86 5218.4249,-86 5218.4249,-122"/>
<text text-anchor="middle" x="5183" y="-99.8" font-family="Times,serif" font-size="14.00" fill="#000000">HelpPage</text>
</g>
<!-- HelpPage&#45;&gt;AppModule -->
<g id="edge19" class="edge">
<title>HelpPage&#45;&gt;AppModule</title>
<path fill="none" stroke="#000000" d="M5183,-122.0336C5183,-139.0597 5183,-162 5183,-162 5183,-162 4017.8919,-162 4017.8919,-162"/>
<polygon fill="#000000" stroke="#000000" points="4017.8919,-158.5001 4007.8919,-162 4017.8919,-165.5001 4017.8919,-158.5001"/>
</g>
<!-- HomePage -->
<g id="node20" class="node">
<title>HomePage</title>
<polygon fill="#ffffb3" stroke="#000000" points="5129.9248,-122 5052.0752,-122 5052.0752,-86 5129.9248,-86 5129.9248,-122"/>
<text text-anchor="middle" x="5091" y="-99.8" font-family="Times,serif" font-size="14.00" fill="#000000">HomePage</text>
</g>
<!-- HomePage&#45;&gt;AppModule -->
<g id="edge20" class="edge">
<title>HomePage&#45;&gt;AppModule</title>
<path fill="none" stroke="#000000" d="M5091,-122.0352C5091,-138.7344 5091,-161 5091,-161 5091,-161 4017.7102,-161 4017.7102,-161"/>
<polygon fill="#000000" stroke="#000000" points="4017.7102,-157.5001 4007.7102,-161 4017.7102,-164.5001 4017.7102,-157.5001"/>
</g>
<!-- ListofEnviroComponent -->
<g id="node21" class="node">
<title>ListofEnviroComponent</title>
<polygon fill="#ffffb3" stroke="#000000" points="5034.3753,-122 4881.6247,-122 4881.6247,-86 5034.3753,-86 5034.3753,-122"/>
<text text-anchor="middle" x="4958" y="-99.8" font-family="Times,serif" font-size="14.00" fill="#000000">ListofEnviroComponent</text>
</g>
<!-- ListofEnviroComponent&#45;&gt;AppModule -->
<g id="edge21" class="edge">
<title>ListofEnviroComponent&#45;&gt;AppModule</title>
<path fill="none" stroke="#000000" d="M4958,-122.0091C4958,-138.0494 4958,-159 4958,-159 4958,-159 4017.6762,-159 4017.6762,-159"/>
<polygon fill="#000000" stroke="#000000" points="4017.6762,-155.5001 4007.6762,-159 4017.6761,-162.5001 4017.6762,-155.5001"/>
</g>
<!-- ListofMedEvalComponent -->
<g id="node22" class="node">
<title>ListofMedEvalComponent</title>
<polygon fill="#ffffb3" stroke="#000000" points="4864.0884,-122 4697.9116,-122 4697.9116,-86 4864.0884,-86 4864.0884,-122"/>
<text text-anchor="middle" x="4781" y="-99.8" font-family="Times,serif" font-size="14.00" fill="#000000">ListofMedEvalComponent</text>
</g>
<!-- ListofMedEvalComponent&#45;&gt;AppModule -->
<g id="edge22" class="edge">
<title>ListofMedEvalComponent&#45;&gt;AppModule</title>
<path fill="none" stroke="#000000" d="M4781,-122.2819C4781,-137.9478 4781,-158 4781,-158 4781,-158 4017.8187,-158 4017.8187,-158"/>
<polygon fill="#000000" stroke="#000000" points="4017.8187,-154.5001 4007.8187,-158 4017.8186,-161.5001 4017.8187,-154.5001"/>
</g>
<!-- ListofvitalsComponent -->
<g id="node23" class="node">
<title>ListofvitalsComponent</title>
<polygon fill="#ffffb3" stroke="#000000" points="4679.6024,-122 4534.3976,-122 4534.3976,-86 4679.6024,-86 4679.6024,-122"/>
<text text-anchor="middle" x="4607" y="-99.8" font-family="Times,serif" font-size="14.00" fill="#000000">ListofvitalsComponent</text>
</g>
<!-- ListofvitalsComponent&#45;&gt;AppModule -->
<g id="edge23" class="edge">
<title>ListofvitalsComponent&#45;&gt;AppModule</title>
<path fill="none" stroke="#000000" d="M4607,-122.2396C4607,-137.5706 4607,-157 4607,-157 4607,-157 4018.0578,-157 4018.0578,-157"/>
<polygon fill="#000000" stroke="#000000" points="4018.0578,-153.5001 4008.0578,-157 4018.0578,-160.5001 4018.0578,-153.5001"/>
</g>
<!-- ManageCustomFormsPage -->
<g id="node24" class="node">
<title>ManageCustomFormsPage</title>
<polygon fill="#ffffb3" stroke="#000000" points="4516.6414,-122 4349.3586,-122 4349.3586,-86 4516.6414,-86 4516.6414,-122"/>
<text text-anchor="middle" x="4433" y="-99.8" font-family="Times,serif" font-size="14.00" fill="#000000">ManageCustomFormsPage</text>
</g>
<!-- ManageCustomFormsPage&#45;&gt;AppModule -->
<g id="edge24" class="edge">
<title>ManageCustomFormsPage&#45;&gt;AppModule</title>
<path fill="none" stroke="#000000" d="M4433,-122.1243C4433,-136.7832 4433,-155 4433,-155 4433,-155 4017.8541,-155 4017.8541,-155"/>
<polygon fill="#000000" stroke="#000000" points="4017.8542,-151.5001 4007.8541,-155 4017.8541,-158.5001 4017.8542,-151.5001"/>
</g>
<!-- MapPage -->
<g id="node25" class="node">
<title>MapPage</title>
<polygon fill="#ffffb3" stroke="#000000" points="4331.3711,-122 4262.6289,-122 4262.6289,-86 4331.3711,-86 4331.3711,-122"/>
<text text-anchor="middle" x="4297" y="-99.8" font-family="Times,serif" font-size="14.00" fill="#000000">MapPage</text>
</g>
<!-- MapPage&#45;&gt;AppModule -->
<g id="edge25" class="edge">
<title>MapPage&#45;&gt;AppModule</title>
<path fill="none" stroke="#000000" d="M4297,-122.0511C4297,-136.373 4297,-154 4297,-154 4297,-154 4017.9214,-154 4017.9214,-154"/>
<polygon fill="#000000" stroke="#000000" points="4017.9214,-150.5001 4007.9214,-154 4017.9213,-157.5001 4017.9214,-150.5001"/>
</g>
<!-- MedEvalUpdatePage -->
<g id="node26" class="node">
<title>MedEvalUpdatePage</title>
<polygon fill="#ffffb3" stroke="#000000" points="4244.4552,-122 4109.5448,-122 4109.5448,-86 4244.4552,-86 4244.4552,-122"/>
<text text-anchor="middle" x="4177" y="-99.8" font-family="Times,serif" font-size="14.00" fill="#000000">MedEvalUpdatePage</text>
</g>
<!-- MedEvalUpdatePage&#45;&gt;AppModule -->
<g id="edge26" class="edge">
<title>MedEvalUpdatePage&#45;&gt;AppModule</title>
<path fill="none" stroke="#000000" d="M4177,-122.2458C4177,-136.1772 4177,-153 4177,-153 4177,-153 4017.6868,-153 4017.6868,-153"/>
<polygon fill="#000000" stroke="#000000" points="4017.6868,-149.5001 4007.6868,-153 4017.6868,-156.5001 4017.6868,-149.5001"/>
</g>
<!-- MedicalHistoryForm -->
<g id="node27" class="node">
<title>MedicalHistoryForm</title>
<polygon fill="#ffffb3" stroke="#000000" points="4091.1965,-122 3956.8035,-122 3956.8035,-86 4091.1965,-86 4091.1965,-122"/>
<text text-anchor="middle" x="4024" y="-99.8" font-family="Times,serif" font-size="14.00" fill="#000000">MedicalHistoryForm</text>
</g>
<!-- MedicalHistoryForm&#45;&gt;AppModule -->
<g id="edge27" class="edge">
<title>MedicalHistoryForm&#45;&gt;AppModule</title>
<path fill="none" stroke="#000000" d="M3982.365,-122.1061C3982.365,-122.1061 3982.365,-140.991 3982.365,-140.991"/>
<polygon fill="#000000" stroke="#000000" points="3978.8651,-140.9909 3982.365,-150.991 3985.8651,-140.991 3978.8651,-140.9909"/>
</g>
<!-- MyApp -->
<g id="node28" class="node">
<title>MyApp</title>
<polygon fill="#ffffb3" stroke="#000000" points="3938.5529,-122 3879.4471,-122 3879.4471,-86 3938.5529,-86 3938.5529,-122"/>
<text text-anchor="middle" x="3909" y="-99.8" font-family="Times,serif" font-size="14.00" fill="#000000">MyApp</text>
</g>
<!-- MyApp&#45;&gt;AppModule -->
<g id="edge28" class="edge">
<title>MyApp&#45;&gt;AppModule</title>
<path fill="none" stroke="#000000" d="M3931.4737,-122.1061C3931.4737,-122.1061 3931.4737,-140.991 3931.4737,-140.991"/>
<polygon fill="#000000" stroke="#000000" points="3927.9738,-140.9909 3931.4737,-150.991 3934.9738,-140.991 3927.9738,-140.9909"/>
</g>
<!-- PatientIDForm -->
<g id="node29" class="node">
<title>PatientIDForm</title>
<polygon fill="#ffffb3" stroke="#000000" points="3860.9846,-122 3761.0154,-122 3761.0154,-86 3860.9846,-86 3860.9846,-122"/>
<text text-anchor="middle" x="3811" y="-99.8" font-family="Times,serif" font-size="14.00" fill="#000000">PatientIDForm</text>
</g>
<!-- PatientIDForm&#45;&gt;AppModule -->
<g id="edge29" class="edge">
<title>PatientIDForm&#45;&gt;AppModule</title>
<path fill="none" stroke="#000000" d="M3811,-122.2458C3811,-136.1772 3811,-153 3811,-153 3811,-153 3914.0548,-153 3914.0548,-153"/>
<polygon fill="#000000" stroke="#000000" points="3914.0548,-156.5001 3924.0548,-153 3914.0547,-149.5001 3914.0548,-156.5001"/>
</g>
<!-- PatientUpdatePage -->
<g id="node30" class="node">
<title>PatientUpdatePage</title>
<polygon fill="#ffffb3" stroke="#000000" points="3743.0227,-122 3620.9773,-122 3620.9773,-86 3743.0227,-86 3743.0227,-122"/>
<text text-anchor="middle" x="3682" y="-99.8" font-family="Times,serif" font-size="14.00" fill="#000000">PatientUpdatePage</text>
</g>
<!-- PatientUpdatePage&#45;&gt;AppModule -->
<g id="edge30" class="edge">
<title>PatientUpdatePage&#45;&gt;AppModule</title>
<path fill="none" stroke="#000000" d="M3682,-122.0511C3682,-136.373 3682,-154 3682,-154 3682,-154 3914.0948,-154 3914.0948,-154"/>
<polygon fill="#000000" stroke="#000000" points="3914.0949,-157.5001 3924.0948,-154 3914.0948,-150.5001 3914.0949,-157.5001"/>
</g>
<!-- PrescriptionsForm -->
<g id="node31" class="node">
<title>PrescriptionsForm</title>
<polygon fill="#ffffb3" stroke="#000000" points="3602.9286,-122 3483.0714,-122 3483.0714,-86 3602.9286,-86 3602.9286,-122"/>
<text text-anchor="middle" x="3543" y="-99.8" font-family="Times,serif" font-size="14.00" fill="#000000">PrescriptionsForm</text>
</g>
<!-- PrescriptionsForm&#45;&gt;AppModule -->
<g id="edge31" class="edge">
<title>PrescriptionsForm&#45;&gt;AppModule</title>
<path fill="none" stroke="#000000" d="M3543,-122.1243C3543,-136.7832 3543,-155 3543,-155 3543,-155 3914.2835,-155 3914.2835,-155"/>
<polygon fill="#000000" stroke="#000000" points="3914.2835,-158.5001 3924.2835,-155 3914.2834,-151.5001 3914.2835,-158.5001"/>
</g>
<!-- ProfileModalPage -->
<g id="node32" class="node">
<title>ProfileModalPage</title>
<polygon fill="#ffffb3" stroke="#000000" points="3464.8613,-122 3347.1387,-122 3347.1387,-86 3464.8613,-86 3464.8613,-122"/>
<text text-anchor="middle" x="3406" y="-99.8" font-family="Times,serif" font-size="14.00" fill="#000000">ProfileModalPage</text>
</g>
<!-- ProfileModalPage&#45;&gt;AppModule -->
<g id="edge32" class="edge">
<title>ProfileModalPage&#45;&gt;AppModule</title>
<path fill="none" stroke="#000000" d="M3406,-122.2396C3406,-137.5706 3406,-157 3406,-157 3406,-157 3913.909,-157 3913.909,-157"/>
<polygon fill="#000000" stroke="#000000" points="3913.909,-160.5001 3923.909,-157 3913.9089,-153.5001 3913.909,-160.5001"/>
</g>
<!-- RadarComponent -->
<g id="node33" class="node">
<title>RadarComponent</title>
<polygon fill="#ffffb3" stroke="#000000" points="3329.2591,-122 3214.7409,-122 3214.7409,-86 3329.2591,-86 3329.2591,-122"/>
<text text-anchor="middle" x="3272" y="-99.8" font-family="Times,serif" font-size="14.00" fill="#000000">RadarComponent</text>
</g>
<!-- RadarComponent&#45;&gt;AppModule -->
<g id="edge33" class="edge">
<title>RadarComponent&#45;&gt;AppModule</title>
<path fill="none" stroke="#000000" d="M3272,-122.2819C3272,-137.9478 3272,-158 3272,-158 3272,-158 3914.1501,-158 3914.1501,-158"/>
<polygon fill="#000000" stroke="#000000" points="3914.1501,-161.5001 3924.1501,-158 3914.15,-154.5001 3914.1501,-161.5001"/>
</g>
<!-- SearchbarObjectIdComponent -->
<g id="node34" class="node">
<title>SearchbarObjectIdComponent</title>
<polygon fill="#ffffb3" stroke="#000000" points="3196.2724,-122 3009.7276,-122 3009.7276,-86 3196.2724,-86 3196.2724,-122"/>
<text text-anchor="middle" x="3103" y="-99.8" font-family="Times,serif" font-size="14.00" fill="#000000">SearchbarObjectIdComponent</text>
</g>
<!-- SearchbarObjectIdComponent&#45;&gt;AppModule -->
<g id="edge34" class="edge">
<title>SearchbarObjectIdComponent&#45;&gt;AppModule</title>
<path fill="none" stroke="#000000" d="M3103,-122.0091C3103,-138.0494 3103,-159 3103,-159 3103,-159 3914.0841,-159 3914.0841,-159"/>
<polygon fill="#000000" stroke="#000000" points="3914.0841,-162.5001 3924.0841,-159 3914.084,-155.5001 3914.0841,-162.5001"/>
</g>
<!-- SignaturePadComponent -->
<g id="node35" class="node">
<title>SignaturePadComponent</title>
<polygon fill="#ffffb3" stroke="#000000" points="2991.9832,-122 2836.0168,-122 2836.0168,-86 2991.9832,-86 2991.9832,-122"/>
<text text-anchor="middle" x="2914" y="-99.8" font-family="Times,serif" font-size="14.00" fill="#000000">SignaturePadComponent</text>
</g>
<!-- SignaturePadComponent&#45;&gt;AppModule -->
<g id="edge35" class="edge">
<title>SignaturePadComponent&#45;&gt;AppModule</title>
<path fill="none" stroke="#000000" d="M2914,-122.0352C2914,-138.7344 2914,-161 2914,-161 2914,-161 3914.1112,-161 3914.1112,-161"/>
<polygon fill="#000000" stroke="#000000" points="3914.1112,-164.5001 3924.1112,-161 3914.1111,-157.5001 3914.1112,-164.5001"/>
</g>
<!-- SigninForgotPage -->
<g id="node36" class="node">
<title>SigninForgotPage</title>
<polygon fill="#ffffb3" stroke="#000000" points="2817.6095,-122 2700.3905,-122 2700.3905,-86 2817.6095,-86 2817.6095,-122"/>
<text text-anchor="middle" x="2759" y="-99.8" font-family="Times,serif" font-size="14.00" fill="#000000">SigninForgotPage</text>
</g>
<!-- SigninForgotPage&#45;&gt;AppModule -->
<g id="edge36" class="edge">
<title>SigninForgotPage&#45;&gt;AppModule</title>
<path fill="none" stroke="#000000" d="M2759,-122.0336C2759,-139.0597 2759,-162 2759,-162 2759,-162 3914.1018,-162 3914.1018,-162"/>
<polygon fill="#000000" stroke="#000000" points="3914.1018,-165.5001 3924.1018,-162 3914.1018,-158.5001 3914.1018,-165.5001"/>
</g>
<!-- SigninPage -->
<g id="node37" class="node">
<title>SigninPage</title>
<polygon fill="#ffffb3" stroke="#000000" points="2682.7759,-122 2603.2241,-122 2603.2241,-86 2682.7759,-86 2682.7759,-122"/>
<text text-anchor="middle" x="2643" y="-99.8" font-family="Times,serif" font-size="14.00" fill="#000000">SigninPage</text>
</g>
<!-- SigninPage&#45;&gt;AppModule -->
<g id="edge37" class="edge">
<title>SigninPage&#45;&gt;AppModule</title>
<path fill="none" stroke="#000000" d="M2643,-122.0225C2643,-139.3734 2643,-163 2643,-163 2643,-163 3914.2201,-163 3914.2201,-163"/>
<polygon fill="#000000" stroke="#000000" points="3914.2202,-166.5001 3924.2201,-163 3914.2201,-159.5001 3914.2202,-166.5001"/>
</g>
<!-- SignupPage -->
<g id="node38" class="node">
<title>SignupPage</title>
<polygon fill="#ffffb3" stroke="#000000" points="2585.3851,-122 2502.6149,-122 2502.6149,-86 2585.3851,-86 2585.3851,-122"/>
<text text-anchor="middle" x="2544" y="-99.8" font-family="Times,serif" font-size="14.00" fill="#000000">SignupPage</text>
</g>
<!-- SignupPage&#45;&gt;AppModule -->
<g id="edge38" class="edge">
<title>SignupPage&#45;&gt;AppModule</title>
<path fill="none" stroke="#000000" d="M2544,-122.302C2544,-140.2699 2544,-165 2544,-165 2544,-165 3914.2123,-165 3914.2123,-165"/>
<polygon fill="#000000" stroke="#000000" points="3914.2124,-168.5001 3924.2123,-165 3914.2123,-161.5001 3914.2124,-168.5001"/>
</g>
<!-- Splash -->
<g id="node39" class="node">
<title>Splash</title>
<polygon fill="#ffffb3" stroke="#000000" points="2485,-122 2431,-122 2431,-86 2485,-86 2485,-122"/>
<text text-anchor="middle" x="2458" y="-99.8" font-family="Times,serif" font-size="14.00" fill="#000000">Splash</text>
</g>
<!-- Splash&#45;&gt;AppModule -->
<g id="edge39" class="edge">
<title>Splash&#45;&gt;AppModule</title>
<path fill="none" stroke="#000000" d="M2458,-122.2667C2458,-140.5552 2458,-166 2458,-166 2458,-166 3914.0935,-166 3914.0935,-166"/>
<polygon fill="#000000" stroke="#000000" points="3914.0936,-169.5001 3924.0935,-166 3914.0935,-162.5001 3914.0936,-169.5001"/>
</g>
<!-- TabsPage -->
<g id="node40" class="node">
<title>TabsPage</title>
<polygon fill="#ffffb3" stroke="#000000" points="2413.4249,-122 2342.5751,-122 2342.5751,-86 2413.4249,-86 2413.4249,-122"/>
<text text-anchor="middle" x="2378" y="-99.8" font-family="Times,serif" font-size="14.00" fill="#000000">TabsPage</text>
</g>
<!-- TabsPage&#45;&gt;AppModule -->
<g id="edge40" class="edge">
<title>TabsPage&#45;&gt;AppModule</title>
<path fill="none" stroke="#000000" d="M2378,-122.2222C2378,-140.8285 2378,-167 2378,-167 2378,-167 3914.3411,-167 3914.3411,-167"/>
<polygon fill="#000000" stroke="#000000" points="3914.3411,-170.5001 3924.3411,-167 3914.3411,-163.5001 3914.3411,-170.5001"/>
</g>
<!-- TermsOfServicePage -->
<g id="node41" class="node">
<title>TermsOfServicePage</title>
<polygon fill="#ffffb3" stroke="#000000" points="2324.7199,-122 2189.2801,-122 2189.2801,-86 2324.7199,-86 2324.7199,-122"/>
<text text-anchor="middle" x="2257" y="-99.8" font-family="Times,serif" font-size="14.00" fill="#000000">TermsOfServicePage</text>
</g>
<!-- TermsOfServicePage&#45;&gt;AppModule -->
<g id="edge41" class="edge">
<title>TermsOfServicePage&#45;&gt;AppModule</title>
<path fill="none" stroke="#000000" d="M2257,-122.1061C2257,-141.3391 2257,-169 2257,-169 2257,-169 3914.1792,-169 3914.1792,-169"/>
<polygon fill="#000000" stroke="#000000" points="3914.1792,-172.5001 3924.1792,-169 3914.1792,-165.5001 3914.1792,-172.5001"/>
</g>
<!-- VitalsForm -->
<g id="node42" class="node">
<title>VitalsForm</title>
<polygon fill="#ffffb3" stroke="#000000" points="2170.7717,-122 2091.2283,-122 2091.2283,-86 2170.7717,-86 2170.7717,-122"/>
<text text-anchor="middle" x="2131" y="-99.8" font-family="Times,serif" font-size="14.00" fill="#000000">VitalsForm</text>
</g>
<!-- VitalsForm&#45;&gt;AppModule -->
<g id="edge42" class="edge">
<title>VitalsForm&#45;&gt;AppModule</title>
<path fill="none" stroke="#000000" d="M2131,-122.0348C2131,-141.5762 2131,-170 2131,-170 2131,-170 3914.2257,-170 3914.2257,-170"/>
<polygon fill="#000000" stroke="#000000" points="3914.2257,-173.5001 3924.2257,-170 3914.2257,-166.5001 3914.2257,-173.5001"/>
</g>
<!-- VitalsUpdatePage -->
<g id="node43" class="node">
<title>VitalsUpdatePage</title>
<polygon fill="#ffffb3" stroke="#000000" points="2073.5758,-122 1956.4242,-122 1956.4242,-86 2073.5758,-86 2073.5758,-122"/>
<text text-anchor="middle" x="2015" y="-99.8" font-family="Times,serif" font-size="14.00" fill="#000000">VitalsUpdatePage</text>
</g>
<!-- VitalsUpdatePage&#45;&gt;AppModule -->
<g id="edge43" class="edge">
<title>VitalsUpdatePage&#45;&gt;AppModule</title>
<path fill="none" stroke="#000000" d="M2015,-122.308C2015,-142.1455 2015,-171 2015,-171 2015,-171 3913.8932,-171 3913.8932,-171"/>
<polygon fill="#000000" stroke="#000000" points="3913.8933,-174.5001 3923.8932,-171 3913.8932,-167.5001 3913.8933,-174.5001"/>
</g>
<!-- IonicApp  -->
<g id="node46" class="node">
<title>IonicApp </title>
<polygon fill="#80b1d3" stroke="#000000" points="4002.3734,-252 3929.6266,-252 3929.6266,-216 4002.3734,-216 4002.3734,-252"/>
<text text-anchor="middle" x="3966" y="-229.8" font-family="Times,serif" font-size="14.00" fill="#000000">IonicApp </text>
</g>
<!-- AppModule&#45;&gt;IonicApp  -->
<g id="edge45" class="edge">
<title>AppModule&#45;&gt;IonicApp </title>
<path fill="none" stroke="#000000" stroke-dasharray="1,5" d="M3966,-187.1061C3966,-187.1061 3966,-205.991 3966,-205.991"/>
<polygon fill="#000000" stroke="#000000" points="3962.5001,-205.9909 3966,-215.991 3969.5001,-205.991 3962.5001,-205.9909"/>
</g>
<!-- SettingsPageModule -->
<g id="node45" class="node">
<title>SettingsPageModule</title>
<polygon fill="#8dd3c7" stroke="#000000" points="1931.8753,-122 1928.8753,-126 1907.8753,-126 1904.8753,-122 1800.1247,-122 1800.1247,-86 1931.8753,-86 1931.8753,-122"/>
<text text-anchor="middle" x="1866" y="-99.8" font-family="Times,serif" font-size="14.00" fill="#000000">SettingsPageModule</text>
</g>
<!-- SettingsPageModule&#45;&gt;AppModule -->
<g id="edge44" class="edge">
<title>SettingsPageModule&#45;&gt;AppModule</title>
<path fill="none" stroke="#000000" d="M1866,-122.1289C1866,-142.5724 1866,-173 1866,-173 1866,-173 3914.0517,-173 3914.0517,-173"/>
<polygon fill="#000000" stroke="#000000" points="3914.0517,-176.5001 3924.0517,-173 3914.0517,-169.5001 3914.0517,-176.5001"/>
</g>
<!-- AssetManagerProvider -->
<g id="node47" class="node">
<title>AssetManagerProvider</title>
<ellipse fill="#fdb462" stroke="#000000" cx="1676" cy="-104" rx="100.1181" ry="18"/>
<text text-anchor="middle" x="1676" y="-99.8" font-family="Times,serif" font-size="14.00" fill="#000000">AssetManagerProvider</text>
</g>
<!-- AssetManagerProvider&#45;&gt;AppModule -->
<g id="edge46" class="edge">
<title>AssetManagerProvider&#45;&gt;AppModule</title>
<path fill="none" stroke="#000000" d="M1676,-122.0267C1676,-142.7672 1676,-174 1676,-174 1676,-174 3914.2979,-174 3914.2979,-174"/>
<polygon fill="#000000" stroke="#000000" points="3914.298,-177.5001 3924.2979,-174 3914.2979,-170.5001 3914.298,-177.5001"/>
</g>
<!-- AuthProvider -->
<g id="node48" class="node">
<title>AuthProvider</title>
<ellipse fill="#fdb462" stroke="#000000" cx="1494" cy="-104" rx="63.7045" ry="18"/>
<text text-anchor="middle" x="1494" y="-99.8" font-family="Times,serif" font-size="14.00" fill="#000000">AuthProvider</text>
</g>
<!-- AuthProvider&#45;&gt;AppModule -->
<g id="edge47" class="edge">
<title>AuthProvider&#45;&gt;AppModule</title>
<path fill="none" stroke="#000000" d="M1494,-122.2843C1494,-143.3211 1494,-175 1494,-175 1494,-175 3914.131,-175 3914.131,-175"/>
<polygon fill="#000000" stroke="#000000" points="3914.1311,-178.5001 3924.131,-175 3914.131,-171.5001 3914.1311,-178.5001"/>
</g>
<!-- ChartsProvider -->
<g id="node49" class="node">
<title>ChartsProvider</title>
<ellipse fill="#fdb462" stroke="#000000" cx="1343" cy="-104" rx="69.4993" ry="18"/>
<text text-anchor="middle" x="1343" y="-99.8" font-family="Times,serif" font-size="14.00" fill="#000000">ChartsProvider</text>
</g>
<!-- ChartsProvider&#45;&gt;AppModule -->
<g id="edge48" class="edge">
<title>ChartsProvider&#45;&gt;AppModule</title>
<path fill="none" stroke="#000000" d="M1343,-122.0449C1343,-143.6623 1343,-177 1343,-177 1343,-177 3914.2693,-177 3914.2693,-177"/>
<polygon fill="#000000" stroke="#000000" points="3914.2694,-180.5001 3924.2693,-177 3914.2693,-173.5001 3914.2694,-180.5001"/>
</g>
<!-- MapControlsProvider -->
<g id="node50" class="node">
<title>MapControlsProvider</title>
<ellipse fill="#fdb462" stroke="#000000" cx="1160" cy="-104" rx="95.0062" ry="18"/>
<text text-anchor="middle" x="1160" y="-99.8" font-family="Times,serif" font-size="14.00" fill="#000000">MapControlsProvider</text>
</g>
<!-- MapControlsProvider&#45;&gt;AppModule -->
<g id="edge49" class="edge">
<title>MapControlsProvider&#45;&gt;AppModule</title>
<path fill="none" stroke="#000000" d="M1160,-122.2921C1160,-144.2057 1160,-178 1160,-178 1160,-178 3914.1564,-178 3914.1564,-178"/>
<polygon fill="#000000" stroke="#000000" points="3914.1565,-181.5001 3924.1564,-178 3914.1564,-174.5001 3914.1565,-181.5001"/>
</g>
<!-- ParseProvider -->
<g id="node51" class="node">
<title>ParseProvider</title>
<ellipse fill="#fdb462" stroke="#000000" cx="982" cy="-104" rx="65.4053" ry="18"/>
<text text-anchor="middle" x="982" y="-99.8" font-family="Times,serif" font-size="14.00" fill="#000000">ParseProvider</text>
</g>
<!-- ParseProvider&#45;&gt;AppModule -->
<g id="edge50" class="edge">
<title>ParseProvider&#45;&gt;AppModule</title>
<path fill="none" stroke="#000000" d="M982,-122.1554C982,-144.3519 982,-179 982,-179 982,-179 3914.1025,-179 3914.1025,-179"/>
<polygon fill="#000000" stroke="#000000" points="3914.1025,-182.5001 3924.1025,-179 3914.1025,-175.5001 3914.1025,-182.5001"/>
</g>
<!-- PhotosProvider -->
<g id="node52" class="node">
<title>PhotosProvider</title>
<ellipse fill="#fdb462" stroke="#000000" cx="828" cy="-104" rx="70.6664" ry="18"/>
<text text-anchor="middle" x="828" y="-99.8" font-family="Times,serif" font-size="14.00" fill="#000000">PhotosProvider</text>
</g>
<!-- PhotosProvider&#45;&gt;AppModule -->
<g id="edge51" class="edge">
<title>PhotosProvider&#45;&gt;AppModule</title>
<path fill="none" stroke="#000000" d="M828,-122.2479C828,-145.0179 828,-181 828,-181 828,-181 3914.3054,-181 3914.3054,-181"/>
<polygon fill="#000000" stroke="#000000" points="3914.3055,-184.5001 3924.3054,-181 3914.3054,-177.5001 3914.3055,-184.5001"/>
</g>
<!-- QueryServiceProvider -->
<g id="node53" class="node">
<title>QueryServiceProvider</title>
<ellipse fill="#fdb462" stroke="#000000" cx="642" cy="-104" rx="97.2509" ry="18"/>
<text text-anchor="middle" x="642" y="-99.8" font-family="Times,serif" font-size="14.00" fill="#000000">QueryServiceProvider</text>
</g>
<!-- QueryServiceProvider&#45;&gt;AppModule -->
<g id="edge52" class="edge">
<title>QueryServiceProvider&#45;&gt;AppModule</title>
<path fill="none" stroke="#000000" d="M642,-122.0908C642,-145.1328 642,-182 642,-182 642,-182 3914.2737,-182 3914.2737,-182"/>
<polygon fill="#000000" stroke="#000000" points="3914.2737,-185.5001 3924.2737,-182 3914.2737,-178.5001 3914.2737,-185.5001"/>
</g>
<!-- StorageProvider -->
<g id="node54" class="node">
<title>StorageProvider</title>
<ellipse fill="#fdb462" stroke="#000000" cx="453" cy="-104" rx="73.5753" ry="18"/>
<text text-anchor="middle" x="453" y="-99.8" font-family="Times,serif" font-size="14.00" fill="#000000">StorageProvider</text>
</g>
<!-- StorageProvider&#45;&gt;AppModule -->
<g id="edge53" class="edge">
<title>StorageProvider&#45;&gt;AppModule</title>
<path fill="none" stroke="#000000" d="M453,-122.3228C453,-145.6602 453,-183 453,-183 453,-183 3914.1001,-183 3914.1001,-183"/>
<polygon fill="#000000" stroke="#000000" points="3914.1001,-186.5001 3924.1001,-183 3914.1,-179.5001 3914.1001,-186.5001"/>
</g>
<!-- UiUxProvider -->
<g id="node55" class="node">
<title>UiUxProvider</title>
<ellipse fill="#fdb462" stroke="#000000" cx="295" cy="-104" rx="65.991" ry="18"/>
<text text-anchor="middle" x="295" y="-99.8" font-family="Times,serif" font-size="14.00" fill="#000000">UiUxProvider</text>
</g>
<!-- UiUxProvider&#45;&gt;AppModule -->
<g id="edge54" class="edge">
<title>UiUxProvider&#45;&gt;AppModule</title>
<path fill="none" stroke="#000000" d="M295,-122.3802C295,-146.2785 295,-185 295,-185 295,-185 3914.1405,-185 3914.1405,-185"/>
<polygon fill="#000000" stroke="#000000" points="3914.1405,-188.5001 3924.1405,-185 3914.1404,-181.5001 3914.1405,-188.5001"/>
</g>
<!-- UserpositionProvider -->
<g id="node56" class="node">
<title>UserpositionProvider</title>
<ellipse fill="#fdb462" stroke="#000000" cx="118" cy="-104" rx="93.7784" ry="18"/>
<text text-anchor="middle" x="118" y="-99.8" font-family="Times,serif" font-size="14.00" fill="#000000">UserpositionProvider</text>
</g>
<!-- UserpositionProvider&#45;&gt;AppModule -->
<g id="edge55" class="edge">
<title>UserpositionProvider&#45;&gt;AppModule</title>
<path fill="none" stroke="#000000" d="M118,-122.1985C118,-146.3563 118,-186 118,-186 118,-186 3914.0966,-186 3914.0966,-186"/>
<polygon fill="#000000" stroke="#000000" points="3914.0967,-189.5001 3924.0966,-186 3914.0966,-182.5001 3914.0967,-189.5001"/>
</g>
</g>
</svg>
